<svg width="60" height="60" viewBox="0 0 60 60" fill="none" xmlns="http://www.w3.org/2000/svg">
<path fill-rule="evenodd" clip-rule="evenodd" d="M13.6951 7.99599C16.6163 3.72334 21.8148 0 30 0C38.1851 0 43.3836 3.72334 46.3049 7.99599C49.1086 12.0966 49.9788 16.8466 49.9788 20H55.5585C58.394 20 60.5028 22.1473 59.8951 24.4158L51.1269 57.143C50.68 58.8113 48.8757 60 46.7904 60H13.2096C11.1243 60 9.32002 58.8113 8.87306 57.143L0.104944 24.4158C-0.5028 22.1473 1.60602 20 4.44149 20H10.0212C10.0212 16.8466 10.8914 12.0966 13.6951 7.99599ZM38.5575 11.5495C40.4156 14.2671 41.0993 17.6988 41.0993 20H18.9007C18.9007 17.6988 19.5844 14.2671 21.4424 11.5495C23.1829 9.00393 25.7539 7.27273 30 7.27273C34.2461 7.27273 36.8171 9.00394 38.5575 11.5495ZM30 42.8275C34.8774 42.8275 39.2398 39.5899 42.145 36.75L47.7589 41.3481C43.4075 45.3564 37.0638 49.3133 30 49.3133C22.9362 49.3133 16.5925 45.3564 12.2411 41.3481L17.855 36.75C20.7602 39.5899 25.1226 42.8275 30 42.8275Z" fill="#FFE202"/>
</svg>
